<svg width="864" height="486" viewBox="0 0 864 486" fill="none" xmlns="http://www.w3.org/2000/svg">
<path d="M0 356.719L148.33 5.93293H237.328V356.719H275.894V430.881H237.328V525.067H157.23V430.881H0V356.719ZM157.23 356.719V161.673L74.9067 356.719H157.23Z" fill="#3C3C3C"/>
<path d="M388.243 405.666C388.243 424.454 391.951 437.803 399.367 445.714C407.278 453.13 417.661 456.838 430.517 456.838C443.372 456.838 453.508 453.13 460.924 445.714C468.835 437.803 472.791 424.454 472.791 405.666V125.334C472.791 106.546 468.835 93.4441 460.924 86.0279C453.508 78.1173 443.372 74.162 430.517 74.162C417.661 74.162 407.278 78.1173 399.367 86.0279C391.951 93.4441 388.243 106.546 388.243 125.334V405.666ZM306.661 130.525C306.661 88.5 317.291 56.3631 338.552 34.1145C359.813 11.3715 390.468 0 430.517 0C470.566 0 501.221 11.3715 522.481 34.1145C543.742 56.3631 554.372 88.5 554.372 130.525V400.475C554.372 442.5 543.742 474.884 522.481 497.627C501.221 519.876 470.566 531 430.517 531C390.468 531 359.813 519.876 338.552 497.627C317.291 474.884 306.661 442.5 306.661 400.475V130.525Z" fill="#3C3C3C"/>
<path d="M588.106 356.719L736.436 5.93293H825.434V356.719H864V430.881H825.434V525.067H745.336V430.881H588.106V356.719ZM745.336 356.719V161.673L663.013 356.719H745.336Z" fill="#3C3C3C"/>
</svg>
