<svg width="831" height="486" viewBox="0 0 831 486" fill="none" xmlns="http://www.w3.org/2000/svg">
<path d="M0 356.788H76.9603V404.902C76.9603 441.913 93.2404 455.237 119.14 455.237C145.041 455.237 161.321 441.913 161.321 404.902V290.908C161.321 253.897 145.041 239.832 119.14 239.832C93.2404 239.832 76.9603 253.897 76.9603 290.908V306.453H0L14.8001 5.92176H229.401V79.9441H88.0603L81.4003 203.561C96.2004 179.134 119.88 165.81 152.441 165.81C212.381 165.81 242.721 208.003 242.721 284.246V399.721C242.721 482.626 201.281 530 121.36 530C41.4402 530 0 482.626 0 399.721V356.788Z" fill="#3C3C3C"/>
<path d="M371.84 125.098V404.902C371.84 441.913 388.12 455.978 414.02 455.978C439.92 455.978 456.2 441.913 456.2 404.902V125.098C456.2 88.0866 439.92 74.0223 414.02 74.0223C388.12 74.0223 371.84 88.0866 371.84 125.098ZM290.44 399.721V130.279C290.44 47.3743 334.1 0 414.02 0C493.94 0 537.6 47.3743 537.6 130.279V399.721C537.6 482.626 493.94 530 414.02 530C334.1 530 290.44 482.626 290.44 399.721Z" fill="#3C3C3C"/>
<path d="M665.239 125.098V404.902C665.239 441.913 681.519 455.978 707.42 455.978C733.32 455.978 749.6 441.913 749.6 404.902V125.098C749.6 88.0866 733.32 74.0223 707.42 74.0223C681.519 74.0223 665.239 88.0866 665.239 125.098ZM583.839 399.721V130.279C583.839 47.3743 627.499 0 707.42 0C787.34 0 831 47.3743 831 130.279V399.721C831 482.626 787.34 530 707.42 530C627.499 530 583.839 482.626 583.839 399.721Z" fill="#3C3C3C"/>
</svg>
