<svg width="36" height="36" viewBox="0 0 36 36" fill="none" xmlns="http://www.w3.org/2000/svg">
<path d="M21.3743 11.7392C20.7272 11.4712 20.0337 11.3333 19.3333 11.3333V12.6666C19.8586 12.6666 20.3788 12.77 20.8641 12.9711C21.3494 13.1721 21.7903 13.4667 22.1618 13.8382C22.5332 14.2096 22.8278 14.6505 23.0288 15.1359C23.2299 15.6212 23.3333 16.1413 23.3333 16.6666H24.6667C24.6667 15.9662 24.5287 15.2727 24.2607 14.6256C23.9927 13.9785 23.5998 13.3906 23.1046 12.8953C22.6093 12.4001 22.0214 12.0073 21.3743 11.7392Z" fill="#7E7E7E"/>
<path fill-rule="evenodd" clip-rule="evenodd" d="M13.5915 12.1323C14.2049 11.5189 15.2313 11.6453 15.6776 12.3891L16.9705 14.5439C17.2853 15.0686 17.2026 15.7401 16.77 16.1727L16.0857 16.857C16.2256 17.1437 16.5764 17.697 17.4396 18.5603C18.3029 19.4235 18.8562 19.7743 19.1429 19.9142L19.8272 19.2299C20.2598 18.7973 20.9313 18.7146 21.456 19.0294L23.6108 20.3223C24.3546 20.7686 24.481 21.7951 23.8676 22.4084L22.1952 24.0808C21.8243 24.4518 21.2887 24.6912 20.7016 24.6181C19.5371 24.4731 16.9064 23.8871 14.4921 21.5164C12.055 19.1234 11.4979 16.444 11.371 15.2755C11.3083 14.6981 11.5475 14.1763 11.9103 13.8134L13.5915 12.1323ZM14.5343 13.0751L12.8531 14.7562C12.7263 14.8831 12.6845 15.0205 12.6966 15.1316C12.8035 16.1161 13.2831 18.4606 15.4262 20.5651C17.5644 22.6646 19.8819 23.1724 20.8664 23.295C20.9812 23.3093 21.1233 23.2671 21.2524 23.138L22.9248 21.4656L20.77 20.1727L19.9845 20.9582C19.7583 21.1844 19.3456 21.408 18.8682 21.2427C18.4058 21.0826 17.6445 20.6508 16.4968 19.5031C15.3491 18.3554 14.9173 17.5941 14.7572 17.1316C14.5919 16.6543 14.8155 16.2416 15.0417 16.0154L15.8272 15.2299L14.5343 13.0751Z" fill="#7E7E7E"/>
<path d="M19.3333 13.9999C19.6835 13.9999 20.0303 14.0689 20.3538 14.2029C20.6774 14.3369 20.9713 14.5333 21.2189 14.781C21.4666 15.0286 21.663 15.3226 21.797 15.6461C21.931 15.9696 22 16.3164 22 16.6666H20.6667C20.6667 16.4915 20.6322 16.3181 20.5652 16.1563C20.4982 15.9946 20.3999 15.8476 20.2761 15.7238C20.1523 15.6 20.0053 15.5018 19.8436 15.4347C19.6818 15.3677 19.5084 15.3333 19.3333 15.3333V13.9999Z" fill="#7E7E7E"/>
</svg>
