<svg width="100%" height="100%" viewBox="0 0 226 44" fill="none" xmlns="http://www.w3.org/2000/svg">
<g clip-path="url(#clip0_281_1343)">
<path fill-rule="evenodd" clip-rule="evenodd" d="M32.829 11.7877C32.4549 11.4223 31.843 11.4223 31.4691 11.7875L23.7633 19.3131C23.3893 19.6783 23.3892 20.2757 23.7633 20.641C24.1374 21.0062 24.7492 21.0064 25.123 20.6411L32.829 13.1156C33.2028 12.7504 33.2029 12.153 32.829 11.7877ZM14.6979 29.4943C14.3237 29.129 13.712 29.129 13.3381 29.4942L5.6323 37.0197C5.25835 37.385 5.2582 37.9823 5.6323 38.3477C6.00639 38.7129 6.61815 38.713 6.99204 38.3478L14.6979 30.8223C15.0718 30.4571 15.0719 29.8597 14.6979 29.4943ZM23.7633 29.4943C24.1374 29.129 24.7492 29.129 25.1232 29.4942L32.829 37.0197C33.2029 37.385 33.203 37.9823 32.829 38.3477C32.4549 38.7129 31.843 38.713 31.4692 38.3478L23.7633 30.8223C23.3895 30.4571 23.3893 29.8597 23.7633 29.4943ZM5.63244 11.7875C6.00653 11.4222 6.61829 11.4222 6.99231 11.7874L14.698 19.3129C15.0721 19.6782 15.0721 20.2755 14.698 20.6409C14.3239 21.0061 13.7122 21.0062 13.3383 20.641L5.63244 13.1155C5.25854 12.7503 5.2584 12.1529 5.63244 11.7875ZM25.6407 25.0677V25.0675C25.6407 24.5508 26.0733 24.1285 26.6021 24.1285H37.4998C38.0287 24.1285 38.4613 24.5508 38.4613 25.0675V25.0677C38.4613 25.5843 38.0287 26.0066 37.4998 26.0066H26.6021C26.0733 26.0066 25.6407 25.5843 25.6407 25.0677ZM0 25.0677V25.0675C0 24.5508 0.432566 24.1285 0.961425 24.1285H11.8591C12.3879 24.1285 12.8205 24.5508 12.8205 25.0675V25.0677C12.8205 25.5843 12.3879 26.0066 11.8591 26.0066H0.961425C0.432566 26.0066 0 25.5843 0 25.0677ZM19.1962 31.3279C19.7252 31.3279 20.1577 31.7503 20.1577 32.2668V42.9096C20.1577 43.4261 19.7252 43.8485 19.1962 43.8485C18.6673 43.8485 18.2348 43.4261 18.2348 42.9096V32.2668C18.2348 31.7503 18.6673 31.3279 19.1962 31.3279Z" fill="#FFCC00"/>
<path fill-rule="evenodd" clip-rule="evenodd" d="M18.1088 0.0263672H20.3524V21.474C21.9293 21.9429 23.0768 23.3742 23.0768 25.0676C23.0768 27.1422 21.3549 28.8238 19.2307 28.8238C17.1065 28.8238 15.3845 27.1422 15.3845 25.0676C15.3845 23.3743 16.532 21.9429 18.1088 21.474V0.0263672Z" fill="#E80000"/>
<path fill-rule="evenodd" clip-rule="evenodd" d="M214.206 26.3796H222.999V29.2419C222.999 30.8161 221.68 32.1041 220.068 32.1041H211.275C209.663 32.1041 208.345 30.8161 208.345 29.2419V20.6552C208.345 19.0807 209.663 17.7927 211.275 17.7927H220.068C221.68 17.7927 222.999 19.0807 222.999 20.6552H225.929C225.842 17.478 223.204 14.9304 220.068 14.9304H211.275C207.993 14.9304 205.414 17.621 205.414 20.6552V29.2419C205.414 32.4762 208.139 34.9664 211.275 34.9664H220.068C223.35 34.9664 225.929 32.2758 225.929 29.2419V23.5174H214.206V26.3796ZM197.389 34.9664H200.319V14.9304H197.389V34.9664ZM180.501 32.4477L189.294 20.0539V34.9664H192.225V14.9304H189.294L180.501 27.3242L171.709 14.9304H168.778V34.9664H171.709V20.0539L180.501 32.4477ZM164.131 34.9664V32.9342L160.057 28.9556C162.489 28.1543 164.131 25.9502 164.131 23.5174V20.6552C164.131 17.478 161.346 14.9304 158.269 14.9304H143.615V34.9664H146.545V29.2419H156.188L162.05 34.9664H164.131ZM161.2 23.5174C161.2 25.0916 159.881 26.3796 158.269 26.3796H146.545V17.7927H158.269C159.881 17.7927 161.2 19.0807 161.2 20.6552V23.5174ZM121.452 17.7927H139.037V14.9304H118.521V34.9664H139.037V32.1041H121.452V26.3796H136.106V23.5174H121.452V17.7927ZM113.427 29.2419C113.427 26.0647 110.642 23.5174 107.565 23.5174H98.7726C97.1607 23.5174 95.8418 22.2293 95.8418 20.6552C95.8418 19.0807 97.1607 17.7927 98.7726 17.7927H107.565C109.177 17.7927 110.496 19.0807 110.496 20.6552H113.427C113.339 17.478 110.701 14.9304 107.565 14.9304H98.7726C95.4901 14.9304 92.911 17.621 92.911 20.6552C92.911 23.8895 95.6366 26.3796 98.7726 26.3796H107.565C109.177 26.3796 110.496 27.6677 110.496 29.2419C110.496 30.8161 109.177 32.1041 107.565 32.1041H98.7726C97.1607 32.1041 95.8418 30.8161 95.8418 29.2419H92.911C92.9988 32.4762 95.5781 34.9664 98.7726 34.9664H107.565C110.848 34.9664 113.427 32.2758 113.427 29.2419ZM88.4867 20.6552C88.3987 17.478 85.7609 14.9304 82.6251 14.9304H73.8324C70.5499 14.9304 67.9708 17.621 67.9708 20.6552V34.9664H70.9016V29.2419H85.5559V34.9664H88.4867V20.6552ZM82.6251 17.7927C84.2369 17.7927 85.5559 19.0807 85.5559 20.6552V26.3796H70.9016V20.6552C70.9016 19.0807 72.2205 17.7927 73.8324 17.7927H82.6251ZM46.6871 14.9304H43.7563V34.9664H64.2722V32.1041H46.6871V14.9304Z" fill="black"/>
</g>
<defs>
<clipPath id="clip0_281_1343">
<rect width="226" height="44" fill="white"/>
</clipPath>
</defs>
</svg>
